# xmcd CD database file
#
# Track frame offsets:
#	150
#	17765
#	34552
#	44600
#	60885
#	71930
#	87700
#	100300
#	116105
#	135702
#	143427
#	158910
#	171860
#	184932
#	196140
#	212785
#	233210
#	238247
#	252915
#	271225
#	288937
#
# Disc length: 4239 seconds
#
# Revision: 3
# Processed by: cddbd v1.5.2PL0 Copyright (c) Steve Scherf et al.
# Submitted via: CDex 1.51
#
DISCID=37108d15
DTITLE=Steampacket - Steampacket featuring Rod Stewart - The First R&B Festival
DYEAR=1900
DGENRE=Rock
TTITLE0=Back At The Chicken Shack
TTITLE1=In-Crowd
TTITLE2=Baby Take Me
TTITLE3=Can I Get A Witness
TTITLE4=Baby Baby
TTITLE5=Holy Smoke
TTITLE6=Cry Me A River
TTITLE7=Baby Don't You Do It
TTITLE8=Lord Remember Me
TTITLE9=Intro To 1964 R&B Festival - Bob Wooler
TTITLE10=Dimples - Spencer Davis R&B Quartet
TTITLE11=You Can Make It If You Try - Spencer Davis R&B Quartet
TTITLE12=Mary Ann - Liverpool Roadrunners
TTITLE13=Bight Lights, Big City - Liverpool Roadrunners
TTITLE14=The 2.19 - Long John Baldry
TTITLE15=Night Time Is The Right Time - Spencer Davis R&B Quartet
TTITLE16=Slow Walk - Sonny Boy Williamson II and Yardbirds
TTITLE17=Highway 69 -  Sonny Boy Williamson II and Yardbirds
TTITLE18=My Little Cabin -  Sonny Boy Williamson II and Yardbirds
TTITLE19=Bye Bye Bird -  Sonny Boy Williamson II and Yardbirds
TTITLE20=I Got My Mojo Working - Sonny Boy Williamson II and Yardbirds
EXTD=Steampacket trks 1-9
EXTT0=
EXTT1=
EXTT2=
EXTT3=
EXTT4=
EXTT5=
EXTT6=
EXTT7=
EXTT8=
EXTT9=Live 64/2/2
EXTT10=live - 64/2/2
EXTT11=live - 64/2/2
EXTT12=live 64/2/2\n
EXTT13=live - 64/2/2
EXTT14=live - 64/2/2
EXTT15=live - 64/2/2
EXTT16=live - 64/2/2
EXTT17=live 64/2/2
EXTT18=live - 64/2/2
EXTT19=live - 64/2/2
EXTT20=live - 64/2/2
PLAYORDER=
